PathFileType  4	(X/Y/Z) C:\Users\antoi\Documents\MyRepositories\mobilecap\ResultsAnalysis
DataRate	CameraRate	NumFrames	NumMarkers	Units	OrigDataRate	OrigDataStartFrame	OrigNumFrames
100.0	100.0	7	51	mm	100.0	83	132
Frame#	Time	r_knee			r_shank_antsup			r_ankle			r_calc			r_5meta			r_toe			L_knee			L_shank_antsup			L_ankle			L_calc			L_5meta			L_toe			r_sh2			r_sh3			r_sh4			L_sh2			L_sh3			r_thigh1			r_thigh2			r_thigh3			r_thigh4			r_thigh5			L_thigh1			L_thigh2			L_thigh3			L_thigh4			r.ASIS			r.PSIS			L.ASIS			L.PSIS			C7			R_Shoulder			L_Shoulder			R_Sternum			L_Sternum			R_humerus			R_elbow_med			R_elbow_lat			R_forearm			R_wrist_radius			R_wrist_ulna			L_humerus			L_elbow_med			L_elbow_lat			L_forearm			L_wrist_radius			L_wrist_ulna			R_HJC			L_HJC			R_HJC_reg			L_HJC_reg			
		X1	Y1	Z1	X2	Y2	Z2	X3	Y3	Z3	X4	Y4	Z4	X5	Y5	Z5	X6	Y6	Z6	X7	Y7	Z7	X8	Y8	Z8	X9	Y9	Z9	X10	Y10	Z10	X11	Y11	Z11	X12	Y12	Z12	X13	Y13	Z13	X14	Y14	Z14	X15	Y15	Z15	X16	Y16	Z16	X17	Y17	Z17	X18	Y18	Z18	X19	Y19	Z19	X20	Y20	Z20	X21	Y21	Z21	X22	Y22	Z22	X23	Y23	Z23	X24	Y24	Z24	X25	Y25	Z25	X26	Y26	Z26	X27	Y27	Z27	X28	Y28	Z28	X29	Y29	Z29	X30	Y30	Z30	X31	Y31	Z31	X32	Y32	Z32	X33	Y33	Z33	X34	Y34	Z34	X35	Y35	Z35	X36	Y36	Z36	X37	Y37	Z37	X38	Y38	Z38	X39	Y39	Z39	X40	Y40	Z40	X41	Y41	Z41	X42	Y42	Z42	X43	Y43	Z43	X44	Y44	Z44	X45	Y45	Z45	X46	Y46	Z46	X47	Y47	Z47	X48	Y48	Z48	X49	Y49	Z49	X50	Y50	Z50	X51	Y51	Z51	

83	0.82000000	925.82433	448.91156	-86.13440	880.93849	336.49796	-108.69424	624.73518	242.07772	-147.87567	573.97723	261.32304	-207.28339	637.85249	114.09645	-124.00165	675.89859	93.57945	-162.88789	914.84932	469.83786	-377.41785	945.26108	372.09936	-315.32050	864.88486	85.01236	-329.92000	810.58350	50.99802	-282.51096	982.33988	37.00652	-330.98294	1016.20345	56.49574	-273.30896	787.49983	280.42528	-131.84015	840.51037	382.85800	-60.93778	740.44741	339.45254	-91.34974	916.04893	384.82821	-397.04766	906.07088	264.42633	-396.16636	940.50693	758.06704	-84.17442	974.87434	653.22279	-71.97243	927.26078	615.58433	-40.22620	836.57831	724.60253	-59.73229	870.31953	615.16521	-52.26104	959.88098	767.71000	-400.61625	979.27142	632.08396	-385.67862	860.71149	754.10106	-446.84179	878.24560	615.56842	-423.57272	944.80903	910.89561	-114.76591	767.44909	964.23422	-188.37234	963.89387	937.37194	-356.93087	770.66560	979.23384	-304.92141	778.50667	1423.00885	-232.79968	829.22205	1390.34997	-79.39906	845.56008	1400.14498	-389.51972	907.31493	1377.45725	-207.65556	911.04737	1375.74808	-252.14892	840.21209	1261.45707	-15.00924	753.27240	1070.98518	-70.70179	781.84002	1073.83454	-0.52250	830.27524	954.87697	9.44474	856.18630	853.82414	2.85337	822.70474	847.01797	21.87894	869.47844	1252.78589	-457.07687	811.48109	1058.09754	-405.10556	816.94165	1070.28581	-476.94554	869.89071	989.71673	-510.61559	918.74467	868.85971	-514.01887	890.64417	858.49566	-525.96243	855.59347	844.54324	-154.21424	873.52784	862.08698	-341.92065	877.82602	845.05952	-159.44843	882.23942	865.64006	-319.33872	
84	0.83000000	950.15144	452.93370	-85.46145	908.04410	339.71046	-107.51821	655.44191	236.73992	-144.88061	602.77421	252.02440	-204.17102	675.71800	110.39773	-118.83717	715.23508	92.00059	-157.63463	918.99572	469.66758	-376.85541	948.48138	371.73179	-314.61367	865.17268	85.02084	-329.16457	810.61662	50.89912	-282.25906	982.45519	37.07573	-330.89969	1016.34062	56.34247	-273.15793	816.70922	280.46494	-129.91973	866.57191	384.97380	-59.66998	768.05771	338.24036	-89.44467	919.34194	384.54994	-396.45541	908.31484	264.29567	-395.55775	954.53575	762.43806	-82.84720	992.13392	658.69734	-71.20964	945.82100	619.39610	-39.13405	851.47643	725.28568	-58.97474	889.03450	617.33482	-51.03057	969.00863	766.90749	-399.30515	985.98963	630.85642	-384.48103	869.69420	755.10256	-445.90287	884.64245	616.06073	-422.83027	955.85945	912.94240	-114.66043	778.45413	965.95795	-187.36813	974.70027	937.67923	-356.56589	781.74704	980.36914	-304.07137	790.57192	1424.22418	-232.49946	840.48727	1391.25731	-78.83259	858.42248	1401.39042	-388.65368	919.15015	1378.20900	-206.63856	923.25826	1376.54253	-251.09389	848.94653	1262.25401	-14.28055	759.80514	1073.41117	-71.88498	787.04487	1075.62852	-1.07927	833.03704	955.59466	9.41768	856.95363	854.21012	3.38170	822.92075	848.07963	21.92053	884.24265	1254.68421	-456.34978	828.06839	1058.77977	-406.87763	835.03272	1071.36544	-478.31087	890.87817	992.43519	-511.05373	943.66769	873.31137	-513.66537	915.92778	862.10364	-526.18762	866.62246	846.38154	-153.00236	884.03537	862.76920	-340.86070	888.69134	846.85015	-158.98226	893.19682	866.57611	-318.67423	
85	0.84000000	974.05843	457.09586	-85.02065	935.03450	343.05217	-106.58960	686.92695	230.37578	-141.72051	632.46678	241.30334	-200.73563	714.67059	106.07040	-113.55711	755.63591	90.04692	-152.31816	923.16287	469.51131	-376.28975	951.69947	371.31759	-313.89444	865.44670	85.01268	-328.38728	810.71279	50.78451	-282.00772	982.57718	37.14991	-330.82017	1016.47072	56.19777	-273.03312	846.25837	280.04102	-128.04752	892.50935	386.82722	-58.51565	795.90099	336.33454	-87.53836	922.68682	384.23497	-395.81998	910.65452	264.12309	-394.93469	968.46616	766.67575	-81.62918	1009.20936	664.13496	-70.70199	964.24346	623.27077	-38.14020	866.41904	726.06631	-58.12120	907.62167	619.65585	-49.73396	978.06492	765.98563	-397.87195	992.72391	629.60432	-383.11215	878.59633	755.98336	-444.95093	891.05711	616.45044	-421.99010	966.82189	914.97840	-114.39255	789.34768	967.52272	-186.48443	985.52250	937.77308	-355.97168	792.78711	981.32228	-303.36677	802.56810	1425.27425	-232.12134	851.73587	1392.05818	-78.24949	871.18413	1402.56834	-387.72904	930.93755	1378.81344	-205.66626	935.41685	1377.23974	-250.07764	857.58096	1263.00712	-13.50265	766.55200	1075.79661	-73.18872	792.25469	1077.44420	-1.71654	835.68454	956.36546	9.47858	857.74866	854.83858	4.19921	823.04110	849.23449	21.90134	898.89571	1256.58266	-455.64952	844.65156	1059.51302	-408.49103	852.93742	1072.55052	-479.55013	911.67299	995.35558	-511.37008	968.36189	878.10174	-513.20355	941.01809	866.07159	-526.27405	877.54862	848.15581	-151.68048	894.62271	863.23239	-339.67747	899.53208	848.50241	-158.37493	904.22238	867.33477	-317.82450	
86	0.85000000	997.42308	461.37402	-84.81450	961.93472	346.43184	-105.87184	719.20785	223.08567	-138.40481	663.13654	229.35024	-197.00436	754.67693	101.30806	-108.25074	796.96832	87.84877	-147.02475	927.44492	469.35172	-375.70326	954.91096	370.85714	-313.13285	865.68869	85.03148	-327.66996	810.88918	50.67721	-281.78215	982.68966	37.21770	-330.74916	1016.58630	56.05880	-272.94024	876.12198	279.23034	-126.22135	918.35091	388.38117	-57.48752	823.99033	333.75063	-85.58991	926.16676	383.89285	-395.14028	913.15566	263.90969	-394.29133	982.27569	770.73501	-80.53526	1026.06448	669.48810	-70.43869	982.48621	627.18504	-37.27013	881.39390	727.00537	-57.11031	926.01395	622.09753	-48.41096	987.06010	764.93742	-396.36033	999.52116	628.33098	-381.65368	887.45172	756.72723	-444.00471	897.57306	616.74748	-421.09057	977.70711	916.94869	-113.90593	800.13393	968.85739	-185.71311	996.35907	937.65699	-355.14548	803.77758	982.06287	-302.77031	814.49134	1426.16919	-231.66590	862.94583	1392.73431	-77.64218	883.86829	1403.67046	-386.75473	942.66466	1379.28738	-204.71630	947.49486	1377.83587	-249.08619	866.13552	1263.67546	-12.67336	773.53793	1078.07166	-74.53809	797.57699	1079.23350	-2.40781	838.30854	957.16747	9.63529	858.56581	855.58382	5.20259	823.17307	850.44986	21.83635	913.43851	1258.45325	-454.96958	861.27233	1060.26129	-409.92001	870.60784	1073.81522	-480.65767	932.22130	998.41937	-511.56432	992.76756	883.17115	-512.63063	965.85215	870.32790	-526.20871	888.38608	849.80914	-150.24474	905.30491	863.46145	-338.36295	910.37523	849.92170	-157.60343	915.32800	867.88647	-316.79779	
87	0.86000000	1020.12734	465.72433	-84.82429	988.77324	349.77866	-105.29536	752.30448	214.94013	-134.96446	694.87397	216.36604	-193.02593	795.66477	96.28999	-103.01970	839.05803	85.50396	-141.86712	931.92282	469.16733	-375.06510	958.13414	370.35251	-312.30282	865.90139	85.12085	-327.06762	811.13577	50.59708	-281.59742	982.78404	37.27622	-330.68545	1016.67743	55.92183	-272.87573	906.27434	278.13092	-124.42848	944.07732	389.60503	-56.57030	852.28765	330.53195	-83.57270	929.82393	383.53210	-394.41215	915.82855	263.66717	-393.62013	995.97362	774.59883	-79.57035	1042.67344	674.71170	-70.40940	1000.52596	631.11120	-36.55155	896.38539	728.13304	-55.88758	944.18054	624.62483	-47.10141	996.01283	763.76946	-394.81673	1006.42063	627.03712	-380.18410	896.31192	757.31300	-443.06834	904.26026	616.95667	-420.16738	988.52566	918.78829	-113.19852	810.82987	969.92033	-185.01793	1007.20714	937.35547	-354.11778	814.70924	982.57346	-302.22194	826.34237	1426.92256	-231.14197	874.10448	1393.26888	-77.00553	896.49260	1404.68300	-385.73796	954.32594	1379.64515	-203.76551	959.46492	1378.31517	-248.10522	874.66119	1264.22159	-11.80654	780.77966	1080.17748	-75.87796	803.10631	1080.94144	-3.13216	841.01583	957.98642	9.88925	859.43326	856.30759	6.27662	823.45021	851.71877	21.76702	927.86715	1260.26385	-454.29481	877.97647	1060.98238	-411.14431	888.03813	1075.11149	-481.62589	952.48777	1001.56484	-511.63965	1016.83008	888.44646	-511.94333	990.36014	874.80286	-525.98042	899.15697	851.28661	-148.71257	916.07284	863.46636	-336.93216	921.23562	851.06119	-156.67051	926.49448	868.22418	-315.62001	
88	0.87000000	1042.07700	470.07883	-85.00016	1015.54239	353.06482	-104.78112	786.23576	206.01364	-131.45584	727.76627	202.55668	-188.87263	837.52678	91.17598	-97.96503	881.72981	83.10809	-136.95682	936.63610	468.94021	-374.34957	961.40105	369.80288	-311.39741	866.09787	85.30668	-326.59409	811.40724	50.56380	-281.45289	982.86034	37.32943	-330.62261	1016.74049	55.78628	-272.82944	936.68405	276.84689	-122.65508	969.61498	390.47688	-55.72591	880.71439	326.74602	-81.48974	933.65975	383.16053	-393.63412	918.63320	263.41472	-392.91992	1009.59030	778.26855	-78.73152	1059.01771	679.75892	-70.60279	1018.34621	635.01680	-35.99734	911.38278	729.43474	-54.42519	962.10908	627.20119	-45.82381	1004.94343	762.50485	-393.28508	1013.43844	625.72314	-378.75588	905.22406	757.72574	-442.13563	911.15592	617.08102	-419.24486	999.29523	920.43686	-112.31342	821.46658	970.70173	-184.34792	1018.05642	936.90008	-352.94642	825.57704	982.85574	-301.65656	838.12676	1427.54052	-230.56462	885.20547	1393.64794	-76.33734	909.06474	1405.58826	-384.68578	965.92541	1379.89570	-202.79384	971.30118	1378.65152	-247.12363	883.23757	1264.61668	-10.93092	788.28948	1082.06915	-77.17134	808.92114	1082.51433	-3.87108	843.91993	958.80937	10.23391	860.42980	856.89975	7.33445	824.01985	853.05327	21.75085	942.17367	1261.98173	-453.60836	894.78151	1061.64280	-412.15332	905.24833	1076.38259	-482.44493	972.45201	1004.73330	-511.59977	1040.49840	893.85384	-511.13839	1014.47850	879.43249	-525.58329	909.88976	852.54691	-147.11583	926.89643	863.27359	-335.41752	932.12132	851.91270	-155.60300	937.68188	868.35866	-314.33172	
89	0.88000000	1063.20907	474.35130	-85.26503	1042.16351	356.29329	-104.25755	821.01218	196.41789	-127.95942	761.88327	188.13167	-184.64700	880.13126	86.11078	-93.17517	924.83545	80.77988	-132.37886	941.57142	468.66016	-373.54678	964.74128	369.20249	-310.43205	866.29341	85.59134	-326.22507	811.63124	50.60082	-281.33309	982.92530	37.38320	-330.55095	1016.78775	55.65670	-272.78780	967.30300	275.47727	-120.89363	994.84299	390.98803	-54.90765	909.18447	322.46713	-79.37574	937.64605	382.78506	-392.80946	921.50587	263.17101	-392.19778	1023.15975	781.74928	-78.01392	1075.07857	684.57796	-71.00539	1035.92501	638.86492	-35.59696	926.37508	730.86139	-52.72685	979.78359	629.79168	-44.56511	1013.86856	761.17814	-391.80132	1020.56260	624.39046	-377.38687	914.20999	757.96725	-441.19630	918.25128	617.12409	-418.33064	1010.04494	921.84983	-111.31970	832.08792	971.21766	-183.64982	1028.88480	936.31727	-351.70845	836.38559	982.92964	-301.01734	849.85558	1428.01732	-229.95029	896.24734	1393.86089	-75.63721	921.58130	1406.36691	-383.60562	977.47373	1380.04106	-201.78642	982.98268	1378.81504	-246.13395	891.95496	1264.84211	-10.08009	796.07833	1083.71370	-78.39213	815.08213	1083.90760	-4.60333	847.12882	959.61514	10.65523	861.67174	857.30285	8.33677	825.02277	854.46600	21.84478	956.34868	1263.57664	-452.89613	911.65259	1062.22712	-412.94989	922.26516	1077.57642	-483.10440	992.10196	1007.87238	-511.44644	1063.72791	899.32733	-510.21364	1038.15843	884.16107	-525.01813	920.61821	853.56831	-145.49139	937.73223	862.91522	-333.85990	943.03831	852.49001	-154.44506	948.84359	868.30933	-312.98515	
